# Blender v2.79 (sub 0) OBJ File: 'aHatsuneMikuDivaBlank.blend'
# www.blender.org
mtllib plant3.mtl
o plant3
v 4.947400 174.670303 1.702771
v 3.788700 174.836395 0.806671
v 2.349700 175.090607 0.999971
v 23.356796 49.110394 -37.860012
v 20.908596 39.425392 -39.692108
v 18.489697 39.263294 -40.704506
v 14.387496 48.509293 -41.615807
v 20.056700 50.190601 -2.661010
v 18.647900 43.739300 -3.480309
v 15.875799 43.739399 -9.546509
v 16.178598 50.190601 -11.147810
v 20.160700 56.704899 -1.970711
v 15.724899 56.704899 -11.678310
v 18.637400 62.988701 -1.274712
v 14.201599 62.988602 -10.982211
v 3.151500 71.403099 2.465188
v 9.489700 71.696701 0.914587
v 6.558700 71.696297 -5.499813
v 1.237900 71.402802 -1.723412
v 14.975300 68.294502 -0.299612
v 11.067299 68.294197 -8.852113
v -0.499100 66.340500 3.458089
v -1.958100 66.431503 3.647989
v -2.798399 43.387100 5.403293
v -1.337399 43.446400 5.216893
v -3.961900 43.308102 4.501693
v -3.128800 66.415001 2.752490
v -3.325500 66.300598 1.296090
v -2.229300 87.794197 1.545986
v -2.422100 87.794197 0.085086
v -4.146200 43.255901 3.040093
v -3.128100 21.150999 3.697197
v -2.928699 21.131701 5.157597
v -1.770000 21.297802 6.053596
v 0.061200 1.160501 4.304300
v 1.244700 1.160501 5.193200
v -2.433000 66.155197 0.131989
v -3.243500 43.260899 1.874793
v -1.525200 87.794197 -1.084414
v 0.393400 66.195099 2.293989
v -0.434600 43.451500 4.051593
v 1.298700 87.794197 1.079686
v 0.401800 87.794197 2.249186
v -0.330900 21.552002 5.860397
v 0.545600 21.745399 4.691196
v 0.196700 66.080704 0.837589
v -0.619000 43.399200 2.590093
v -0.974000 66.064201 -0.057911
v -1.782500 43.320301 1.688393
v 0.346100 21.764700 3.230796
v -0.812500 21.598600 2.334697
v -2.251600 21.344400 2.527997
v -1.059500 87.794197 2.442386
v 1.473100 175.283997 2.169171
v 5.146901 174.689606 3.163071
v 4.270300 174.882996 4.332371
v 1.672600 175.303299 3.629571
v 2.831300 175.137207 4.525571
v -0.063900 87.794197 -1.277614
v 1.105900 87.794197 -0.381214
v 41.398201 176.139008 2.158668
v 49.820499 170.319397 0.267968
v 45.435501 169.409500 -16.464432
v 37.013302 175.229004 -14.573832
v 31.515400 179.679092 3.489168
v 27.652397 178.877197 -11.252432
v 20.913099 180.480896 4.249069
v 18.016100 179.879303 -6.807231
v 10.963100 176.901901 4.995070
v 9.071700 176.509003 -2.224630
v 4.079501 169.324905 6.431872
v 2.569100 169.011307 0.665272
v 55.165199 161.356995 -1.772731
v 51.331501 160.561707 -16.401131
v 56.880100 150.907394 -3.889630
v 54.139801 150.339005 -14.345730
v 53.545101 140.458298 -6.539428
v 52.805698 140.305206 -9.358928
v -2.613700 71.003403 1.046789
v 2.332400 71.334999 3.118788
v 4.995200 78.190697 -2.580213
v -1.197500 77.775299 -5.174012
v 9.991299 80.774002 -10.287014
v 0.507499 80.138100 -14.258913
v 15.245598 78.758202 -18.057613
v 2.600498 77.910400 -23.353214
v 19.483099 73.761696 -24.970613
v 5.130197 72.799690 -30.981312
v -2.334199 77.140099 8.023288
v 7.393901 79.876701 13.846786
v 3.659700 76.893204 6.471787
v -1.785199 80.254799 16.223186
v 1.497300 70.120903 1.685488
v -3.290300 70.317902 2.924489
v -13.411598 118.861000 19.837980
v -10.605398 112.464401 17.362083
v -10.199698 112.464600 17.677183
v -11.907798 118.861198 21.007080
v -1.157799 72.425797 6.303488
v 1.826400 72.306503 3.587288
v -1.053200 68.155701 1.209389
v -3.436900 68.250900 3.378689
v -0.719799 136.222595 7.967278
v -0.485999 136.516205 14.488178
v 6.389301 136.515793 12.918277
v 3.769801 136.222305 6.942378
v -0.408998 133.113998 20.106079
v 8.758101 133.113693 18.012777
v -0.196398 127.808205 23.889778
v 10.208702 127.808098 21.513680
v 0.176402 121.524406 25.522581
v 10.581502 121.524399 23.146479
v 0.873402 115.010109 25.560680
v 9.970102 115.010109 23.483280
v -1.763100 132.327499 1.237478
v -0.302100 132.268097 1.051078
v 0.506400 109.524200 -0.695218
v -0.952600 109.433197 -0.505318
v 0.861400 132.189194 1.952778
v 1.677100 109.507698 0.200282
v -0.771200 154.244003 1.890675
v 0.667900 153.989700 1.697375
v 1.826500 153.823700 2.593475
v 1.045800 132.136902 3.414278
v 1.873800 109.393303 1.656682
v 0.981300 109.247902 2.820782
v 0.143000 132.141998 4.579578
v 2.026000 153.843002 4.053775
v -2.665800 132.332504 2.402779
v -1.845100 109.287804 0.658782
v -1.648400 109.173401 2.115182
v -2.481500 132.280197 3.864379
v -1.318000 132.201294 4.765978
v -0.289600 154.290604 5.416275
v -1.448300 154.456696 4.520275
v -0.477700 109.156898 3.010682
v 1.149500 154.036407 5.223075
v -1.647700 154.437302 3.059875
v 2.379100 173.961899 3.875871
v 2.140400 179.259094 4.496171
v 5.558800 179.339706 2.705670
v 5.109400 174.026398 2.445771
v 1.881601 184.369507 6.442470
v 7.116601 184.492599 3.700269
v 2.119901 189.108902 9.233468
v 9.099701 189.272903 5.577068
v 3.123701 193.382401 12.488468
v 11.046000 193.568604 8.337868
v 5.273602 195.930603 16.706367
v 13.195901 196.116898 12.555667
v 8.298102 195.226303 21.235268
v 15.224002 195.389404 17.606367
v 11.136402 191.355194 24.074768
v 16.086903 191.472000 21.480768
v 12.898202 185.949799 22.794470
v 14.233102 185.981400 22.094667
v 4.799500 172.120697 2.036972
v 5.316300 177.417892 1.619071
v 1.460700 177.498505 1.460571
v 1.719900 172.185303 1.910272
v 6.513600 182.528305 0.062870
v 0.608900 182.651505 -0.179730
v 7.702800 187.267700 -2.473231
v -0.170200 187.431702 -2.796631
v 8.460899 191.541306 -5.794032
v -0.475301 191.727493 -6.160731
v 8.708099 194.089493 -10.521832
v -0.228201 194.275803 -10.888432
v 8.353199 193.385193 -15.956232
v 0.540699 193.548294 -16.276432
v 7.314898 189.514099 -19.834433
v 1.730598 189.630798 -20.063231
v 5.148998 184.108704 -19.606531
v 3.643098 184.140198 -19.668030
v 1.876600 171.302704 -0.139728
v -0.236400 177.796204 0.050171
v 1.652500 177.899307 4.612371
v 3.385200 171.385300 3.504272
v -4.245100 183.539993 0.159670
v -1.351999 183.697693 7.146170
v -9.449700 188.237396 0.844270
v -5.591999 188.447601 10.159570
v -15.193600 191.908600 2.402870
v -10.814799 192.147095 12.976170
v -21.310200 193.836700 4.892570
v -16.931297 194.075195 15.465870
v -27.294800 192.193405 8.187371
v -23.466497 192.401901 17.430971
v -31.708797 187.790298 11.659772
v -28.972198 187.939407 18.266972
v -32.238998 181.075500 14.858873
v -31.500797 181.115601 16.640472
v 41.101799 53.339298 9.775087
v 41.786301 44.593201 7.288089
v 41.870701 44.406601 4.938189
v 41.416500 52.647301 1.061188
v 38.659100 61.656898 10.778087
v 39.099602 60.688702 -1.412913
v 22.322098 66.868195 -30.646513
v 7.969097 65.906189 -36.657112
v 34.861599 69.363297 10.912286
v 35.365501 68.255798 -3.032314
v 5.894001 79.699799 5.049587
v 13.971201 81.974098 6.772085
v 14.304500 81.241898 -2.441915
v 6.111900 79.221603 -0.967013
v 29.252100 75.593903 10.214584
v 29.756100 74.486397 -3.729915
v 22.145100 80.121902 8.762085
v 22.589300 79.146004 -3.523215
v 11.203701 42.098499 6.249692
v 8.050900 37.776402 3.856193
v 8.208200 37.776699 2.348293
v 11.787500 42.098598 0.658092
v 13.458801 47.049702 7.612991
v 14.275800 47.049801 -0.209709
v 14.881201 52.337502 8.330391
v 15.815700 52.337601 -0.617610
v 15.118501 57.813999 8.355189
v 16.052999 57.813999 -0.592811
v 13.517101 63.024101 7.649689
v 14.340400 63.023899 -0.233612
v 10.079001 67.146698 6.294388
v 10.696600 67.146500 0.381888
v 23.562296 58.328197 -34.784111
v 11.014196 57.487293 -40.038712
v 4.985600 68.528000 4.725189
v 5.389000 68.527603 0.864488
v 15.547400 37.645100 -4.741308
v 14.799599 37.645302 -6.377108
v 2.247200 1.160500 1.461500
v 0.770100 1.160500 1.665600
v 2.721801 1.160501 4.989200
v -0.135400 1.160501 2.843100
v 3.430700 1.160500 2.350399
v 3.627300 1.160501 3.811599
v 1.961302 108.558807 24.347183
v 8.463402 108.558899 22.862181
v 3.824602 102.464600 21.566683
v 5.577902 102.464798 21.165983
v -1.199598 79.161804 24.973686
v 11.039102 78.657997 21.804886
v -0.226897 75.246109 32.764088
v 13.664603 74.674408 29.167187
v 0.292400 143.433594 -2.356323
v -0.127101 146.548294 -10.563824
v -9.342501 146.170303 -8.332723
v -5.725200 143.186707 -0.899723
v -0.574402 145.455399 -19.322523
v -12.861601 144.951508 -16.347322
v -1.423902 141.539703 -27.127323
v -15.370502 140.967896 -23.750221
v 1.154903 69.462410 39.019989
v 15.046403 68.890709 35.422890
v -19.097101 117.436096 -13.261417
v -19.843102 111.681702 -11.395717
v -20.716700 111.635300 -10.084016
v -22.337200 117.263802 -8.397617
v -17.865301 123.125099 -13.641519
v -22.398500 122.883904 -6.837018
v -16.144503 128.567993 -13.009319
v -21.329800 128.292099 -5.226219
v -13.612501 133.234894 -11.157021
v -18.797800 132.958893 -3.373920
v -10.405101 136.943604 -8.219521
v -14.973500 136.700394 -1.362421
v -6.591600 138.893005 -4.371022
v -10.018000 138.710495 0.771778
v -2.575200 137.779495 -0.444822
v -4.812699 137.660202 2.913178
v 2.913404 62.011208 43.390388
v 15.058003 61.511509 40.245590
v -30.732201 141.952805 8.436780
v -36.081799 135.722198 10.262781
v -30.436197 134.614700 23.023281
v -25.086699 140.845200 21.197279
v -39.438202 128.015701 12.044283
v -34.502396 127.047600 23.200182
v -41.196201 119.698196 14.014684
v -37.668095 119.006203 21.988585
v -40.723999 110.952103 16.550585
v -39.772301 110.765503 18.700686
v 5.163404 53.824409 46.232094
v 13.844104 53.467209 43.984089
v -2.706803 135.755905 -33.404224
v -16.653301 135.184204 -30.027021
v -4.396003 128.304703 -37.801819
v -16.588804 127.804993 -34.849220
v -6.600904 120.117989 -40.678719
v -15.316004 119.760796 -38.568119
v -9.802504 111.361092 -41.446819
v -12.152604 111.264793 -40.877316
v 8.145904 44.495407 45.932793
v 10.471804 44.399109 45.271492
v 1.788201 73.539299 11.085487
v 6.358201 73.356796 6.925688
v -1.474799 145.018997 10.271276
v 0.564902 147.602402 19.226576
v 10.025201 146.966400 15.199075
v 4.702701 144.603607 7.641676
v 2.470102 145.586594 28.411276
v 15.083702 144.738800 23.041075
v 4.469903 140.590103 36.269276
v 18.786901 139.628006 30.173574
v 6.558204 133.696503 42.262177
v 20.875204 132.734604 36.166477
v 8.658804 125.156609 46.036377
v 21.175505 124.315704 40.707077
v 11.006804 115.938805 48.034081
v 19.953403 115.337708 44.224583
v 14.027103 106.253708 47.556980
v 16.439505 106.091705 46.529282
v 4.556101 71.589897 15.742988
v 10.649201 71.346703 10.196588
v 6.956502 67.881203 19.369888
v 13.872501 67.605301 13.074287
v -7.467599 146.058594 2.865677
v -15.484600 148.332901 4.849377
v -11.754499 147.600800 13.281178
v -5.032199 145.580505 8.371677
v -23.705700 146.480804 6.634678
v -18.731998 145.504898 17.876978
v 8.964502 63.214405 21.780289
v 15.880501 62.938503 15.484689
v -4.858800 131.311707 2.488179
v -10.125600 129.930496 3.304680
v -8.094999 129.930206 8.891780
v -3.533000 131.311295 6.136479
v -13.810100 125.807800 3.589481
v -11.102699 125.807602 11.038881
v -15.558800 120.597702 3.655482
v -12.485699 120.597702 12.110982
v -15.334500 115.121201 3.573982
v -12.261399 115.121300 12.029482
v -12.935100 110.154503 3.303883
v -10.248499 110.154602 10.696083
v -8.604900 106.609901 2.923583
v -6.684499 106.610100 8.207383
v -2.910200 105.229202 3.038383
v -2.392299 105.229500 4.463183
v 10.480902 57.771404 22.810390
v 16.527203 57.530304 17.306389
v 5.133703 180.165695 38.185471
v 7.505304 174.161118 49.279869
v 27.491903 174.465302 42.804470
v 22.742203 180.433502 32.480770
v 3.432302 182.117798 25.516769
v 16.638802 182.318497 21.238470
v 2.054301 178.439499 13.272671
v 10.678101 178.570404 10.479470
v 11.768102 52.082504 22.739990
v 16.089802 51.910103 18.805691
v 12.943802 46.328102 21.110491
v 14.109102 46.281605 20.049391
v 2.343401 153.668793 9.832476
v 6.081001 151.812302 15.943675
v 11.961501 151.811996 10.534274
v 6.183401 153.668396 6.300374
v 7.254101 118.145302 16.898781
v 6.205401 112.336098 11.682781
v 7.704901 112.336403 10.302981
v 12.815401 118.145500 11.782880
v 8.314402 124.800201 20.278379
v 16.094803 124.800301 13.121278
v 9.109902 131.907394 22.266277
v 18.009401 131.907501 14.079678
v 9.327002 139.268402 22.502277
v 18.226501 139.268295 14.315676
v 8.340502 146.271103 20.367176
v 16.181103 146.270905 13.154675
v 0.326400 169.586594 4.561672
v 7.214600 169.691299 2.330972
v -44.678196 134.729721 55.870380
v -40.903095 120.435211 60.394386
v -37.672997 120.519005 62.751286
v -32.701195 135.040115 64.612274
v -44.658596 148.452316 50.336182
v -27.902695 148.886520 62.566578
v -42.069195 161.214905 43.804176
v -22.903395 161.711411 57.793877
v -36.434498 171.527298 35.718777
v -17.268696 172.023712 49.708672
v -28.136398 179.011902 26.480574
v -11.251096 179.449005 38.806072
v -17.783298 182.014801 16.625172
v -5.119498 182.342407 25.869471
v -7.451900 178.019608 7.230172
v 0.817001 178.233307 13.266971
v 2.729300 169.490402 5.231672
v 4.064001 175.852798 6.315971
v 5.553700 175.952301 1.790971
v 3.919200 169.570099 1.617472
v -4.899299 152.812393 9.372375
v -3.861199 152.811996 10.179875
v -0.302900 148.787903 5.388076
v -1.131800 148.788193 4.742876
v -10.889707 131.638290 -71.372826
v -16.086306 115.629585 -71.295616
v -20.230106 115.377594 -69.983719
v -26.257006 130.703888 -66.510216
v -7.198706 146.827682 -67.484619
v -28.698105 145.520386 -60.682121
v -4.205205 160.857285 -60.721428
v -28.797104 159.361877 -52.940624
v -1.604904 172.108688 -50.340126
v -26.196804 170.613098 -42.559528
v 0.528397 180.175598 -36.942230
v -21.137503 178.857697 -30.087627
v 2.254098 183.274994 -21.442930
v -13.995501 182.286301 -16.302229
v 4.171700 178.756500 -6.412529
v -6.439100 178.110703 -3.056228
v 8.736100 164.290604 4.399872
v 6.488600 164.080994 -2.328527
v 0.618900 156.783905 0.612574
v 2.413701 156.951096 5.986874
v -6.337199 164.746506 9.590874
v 0.996401 164.920105 12.363974
v 3.337501 157.964798 4.376674
v -2.519900 157.826004 2.161474
v 68.278000 131.123398 24.961573
v 69.980400 116.481400 20.992975
v 70.656303 116.169098 17.114975
v 70.787003 129.964905 10.581272
v 63.998005 145.047897 26.068071
v 67.508598 143.427002 5.949671
v 57.669304 157.949295 25.424570
v 61.685001 156.095200 2.412469
v 48.525005 168.380005 22.988367
v 52.540901 166.525803 -0.023732
v 37.069302 175.960403 18.958668
v 40.607498 174.326508 -1.315232
v 23.966602 179.061005 13.794168
v 26.620600 177.835403 -1.411331
v 10.963401 175.253601 9.095470
v 12.696900 174.453094 -0.833329
v 5.951500 161.272293 -0.534827
v 0.680900 161.271805 -3.780226
v -2.049600 155.422195 1.842575
v 2.160001 155.422394 4.434975
v -7.233500 168.529297 2.600573
v -3.490899 169.174194 10.012672
v 3.792500 161.157806 6.091074
v 0.803600 160.642502 0.170674
v 31.775597 133.280579 -51.259724
v 28.429895 120.263092 -53.646824
v 25.148695 120.045296 -54.933323
v 19.608494 132.472687 -56.032524
v 32.145798 145.670181 -47.132729
v 15.123796 144.539886 -53.810226
v 30.605597 157.148499 -41.535126
v 11.135395 155.855591 -49.173225
v 26.964195 166.414093 -33.821430
v 7.493996 165.121002 -41.459625
v 21.481398 173.129807 -24.402630
v 4.327797 171.990295 -31.132229
v 14.658299 175.839203 -13.800529
v 1.793198 174.984406 -18.847929
v 8.180300 172.367004 -3.291929
v -0.220201 171.808594 -6.588128
v -1.933300 162.706696 1.814274
v 4.776300 163.152405 4.447473
v 2.990500 164.387100 -0.680527
v 1.605501 165.026199 7.249873
v -48.517998 129.465897 24.752483
v -46.326195 118.067108 29.587585
v -44.863796 118.319206 32.482086
v -43.096596 130.400696 35.486881
v -47.555401 140.713303 20.582781
v -39.970997 142.020996 35.600681
v -44.296902 151.402206 16.642778
v -35.621597 152.897797 33.820877
v -38.078499 160.376404 12.721077
v -29.403399 161.871902 29.899277
v -29.292999 167.291306 8.972775
v -21.650198 168.608597 24.107075
v -18.445999 170.749100 5.582674
v -12.713998 171.736801 16.933573
v -1.653199 166.710297 6.155673
v 6.822200 167.225800 3.475372
v 5.678501 167.627899 5.235772
v -0.925900 167.456894 0.413673
v 18.806898 124.089699 -18.767422
v 14.401299 115.898598 -17.855822
v 12.342598 115.898804 -19.122820
v 11.173099 124.089790 -23.467020
v 20.992899 132.760803 -18.906523
v 10.313198 132.760895 -25.481623
v 21.625498 141.516602 -18.213625
v 9.409598 141.516495 -25.734425
v 20.445198 149.962601 -16.296726
v 8.229398 149.962402 -23.817625
v 17.085598 157.093994 -12.468027
v 6.323298 157.093597 -19.094128
v 11.868599 161.666794 -7.008227
v 3.796999 161.666306 -11.977926
v 1.411200 150.533096 1.887875
v -1.656100 150.533401 4.708776
v -0.195200 128.978897 1.208979
v 0.863600 128.978699 4.123079
v -21.791595 124.927605 47.996479
v -17.479197 113.947105 49.011185
v -14.614696 114.015205 50.093479
v -11.169895 125.179909 52.011681
v -23.499197 135.829102 45.418579
v -8.639195 136.182022 51.036179
v -23.484396 146.272293 41.491177
v -6.487096 146.675812 47.916977
v -21.451595 155.212906 35.552776
v -4.454296 155.616196 41.978573
v -17.582499 162.301697 27.932276
v -2.607597 162.656799 33.593674
v -12.144698 166.195297 18.966473
v -0.913598 166.461502 23.212673
v -3.702600 138.163406 4.388577
v 1.231700 137.831802 2.288577
v 1.167800 136.611404 2.756978
v -3.638700 136.414398 3.920178
v 44.349899 128.527298 -4.708025
v 42.564899 118.411102 -7.756223
v 41.686501 118.329498 -10.383923
v 41.093899 128.224304 -14.452525
v 43.548698 138.528397 -2.588126
v 38.993698 138.104401 -16.221127
v 40.814899 148.097000 -0.881528
v 35.604801 147.612000 -16.475428
v 35.512199 156.301300 0.634971
v 30.302298 155.816193 -14.959027
v 27.974701 162.821198 1.918171
v 23.384699 162.393600 -11.820329
v 18.518700 166.248199 3.059971
v 15.076399 165.927307 -7.243928
v -2.208000 139.949402 0.675477
v -0.262900 139.567703 5.073377
v -9.607499 151.973602 14.857876
v -8.017599 151.973206 16.094275
v -13.263698 147.168701 19.012676
v -11.143698 147.168503 20.661077
v -15.378398 140.555298 21.436680
v -12.972198 140.555206 23.307779
v -15.825798 133.223404 22.011780
v -13.419498 133.223495 23.882778
v -15.078498 125.903900 21.362680
v -12.974698 125.903999 22.998381
v -1.442900 133.509399 4.522879
v 0.344500 133.604507 1.840878
v -1.298000 131.870407 3.352679
v 2.288000 131.870193 2.534278
v 6.768201 181.583893 8.665270
v 9.049200 181.735992 1.735370
v 10.759301 186.376999 11.364669
v 13.800400 186.579697 2.124868
v 15.745501 190.225494 13.782067
v 19.197300 190.455399 3.294267
v 21.648401 192.514206 15.774966
v 25.100100 192.744095 5.287167
v 28.184301 191.377304 17.169966
v 31.201900 191.578293 8.000966
v 33.859600 187.493393 17.502666
v 36.016399 187.637207 10.948867
v 36.677601 181.142395 15.637168
v 37.258900 181.181107 13.869668
v -2.778400 67.050697 0.621189
v -1.250100 67.050903 3.966789
v 10.464105 165.526108 58.006573
v 30.450603 165.830414 51.531071
v 13.918305 154.567520 63.866272
v 31.391506 154.833618 58.204872
v 18.004005 142.638321 67.415581
v 30.493505 142.828613 63.368671
v 23.346006 130.040421 67.752876
v 26.713806 130.091721 66.661079
v 0.554600 66.195000 0.752189
v 0.232200 66.195198 3.835789
v 0.380500 73.208801 -0.086812
v 0.206200 73.590599 4.718788
vt 0.862900 0.685700
vt 0.876500 0.699900
vt 0.876100 0.719600
vt 0.081800 0.131300
vt 0.162400 0.007600
vt 0.221900 0.007600
vt 0.302500 0.131300
vt 0.037900 0.255100
vt 0.081900 0.131300
vt 0.302400 0.131300
vt 0.346400 0.255100
vt 0.015700 0.378800
vt 0.368600 0.378800
vt 0.015700 0.502300
vt 0.368600 0.502300
vt 0.116000 0.870200
vt 0.075600 0.748300
vt 0.308800 0.748300
vt 0.268300 0.870100
vt 0.036700 0.625600
vt 0.347600 0.625600
vt 0.985500 0.246100
vt 0.948300 0.246100
vt 0.948300 0.491500
vt 0.985500 0.491500
vt 0.908500 0.491500
vt 0.908500 0.246100
vt 0.866400 0.246100
vt 0.908500 0.006100
vt 0.866400 0.006100
vt 0.866400 0.491500
vt 0.866400 0.726200
vt 0.908500 0.726200
vt 0.948300 0.726200
vt 0.908500 0.937000
vt 0.948300 0.937000
vt 0.826300 0.246100
vt 0.826300 0.491500
vt 0.826300 0.006100
vt 0.947000 0.246100
vt 0.947000 0.491500
vt 0.947000 0.006100
vt 0.985500 0.006100
vt 0.985500 0.726200
vt 0.947000 0.726200
vt 0.903500 0.246100
vt 0.903500 0.491500
vt 0.862300 0.246100
vt 0.862300 0.491500
vt 0.903500 0.726200
vt 0.862300 0.726200
vt 0.826300 0.726200
vt 0.948300 0.006100
vt 0.861900 0.733200
vt 0.843200 0.685200
vt 0.829000 0.698800
vt 0.842200 0.732800
vt 0.828600 0.718500
vt 0.862300 0.006100
vt 0.903500 0.006100
vt 0.015600 0.502300
vt 0.015600 0.378800
vt 0.368700 0.378800
vt 0.368700 0.502300
vt 0.036600 0.625600
vt 0.347700 0.625600
vt 0.075500 0.748300
vt 0.308800 0.748300
vt 0.116000 0.870200
vt 0.268300 0.870100
vt 0.131300 0.990800
vt 0.253000 0.990800
vt 0.037800 0.255100
vt 0.346500 0.255100
vt 0.081800 0.131300
vt 0.302500 0.131300
vt 0.162400 0.007600
vt 0.221900 0.007600
vt 0.253000 0.990800
vt 0.131300 0.990800
vt 0.116000 0.870200
vt 0.268300 0.870100
vt 0.075500 0.748300
vt 0.308800 0.748300
vt 0.036600 0.625600
vt 0.347700 0.625600
vt 0.015600 0.502300
vt 0.368700 0.502300
vt 0.116000 0.870200
vt 0.308800 0.748300
vt 0.268300 0.870100
vt 0.075500 0.748300
vt 0.253000 0.990800
vt 0.131300 0.990800
vt 0.081900 0.131300
vt 0.162400 0.007600
vt 0.221900 0.007600
vt 0.302400 0.131300
vt 0.116000 0.870200
vt 0.268300 0.870100
vt 0.253000 0.990800
vt 0.131300 0.990800
vt 0.634800 0.128700
vt 0.675300 0.250600
vt 0.442100 0.250600
vt 0.482600 0.128800
vt 0.714200 0.373300
vt 0.403200 0.373300
vt 0.735200 0.496600
vt 0.382200 0.496600
vt 0.735200 0.620100
vt 0.382200 0.620100
vt 0.713000 0.743800
vt 0.404400 0.743800
vt 0.826300 0.491500
vt 0.862300 0.491500
vt 0.862300 0.246100
vt 0.826300 0.246100
vt 0.903500 0.491500
vt 0.903500 0.246100
vt 0.826300 0.726200
vt 0.862300 0.726200
vt 0.826300 0.948400
vt 0.862300 0.948400
vt 0.903500 0.948400
vt 0.903500 0.726200
vt 0.947000 0.491500
vt 0.947000 0.246100
vt 0.985500 0.246100
vt 0.985500 0.491500
vt 0.947000 0.726200
vt 0.866400 0.491500
vt 0.866400 0.246100
vt 0.908500 0.246100
vt 0.908500 0.491500
vt 0.948300 0.491500
vt 0.948300 0.726200
vt 0.908500 0.726200
vt 0.948300 0.246100
vt 0.948300 0.948400
vt 0.908500 0.948400
vt 0.985500 0.726200
vt 0.985500 0.948400
vt 0.866400 0.948400
vt 0.866400 0.726200
vt 0.619500 0.008100
vt 0.634800 0.128700
vt 0.482500 0.128800
vt 0.497800 0.008100
vt 0.675300 0.250600
vt 0.442000 0.250600
vt 0.714200 0.373300
vt 0.403200 0.373300
vt 0.735200 0.496600
vt 0.382200 0.496600
vt 0.735200 0.620100
vt 0.382200 0.620100
vt 0.713000 0.743800
vt 0.404400 0.743800
vt 0.669000 0.867600
vt 0.448400 0.867600
vt 0.588400 0.991300
vt 0.528900 0.991300
vt 0.619500 0.008100
vt 0.634800 0.128700
vt 0.482500 0.128800
vt 0.497800 0.008100
vt 0.675300 0.250600
vt 0.442000 0.250600
vt 0.714200 0.373300
vt 0.403200 0.373300
vt 0.735200 0.496600
vt 0.382200 0.496600
vt 0.735200 0.620100
vt 0.382200 0.620100
vt 0.713000 0.743800
vt 0.404400 0.743800
vt 0.669000 0.867600
vt 0.448400 0.867600
vt 0.588400 0.991300
vt 0.528900 0.991300
vt 0.619500 0.008100
vt 0.634800 0.128700
vt 0.482500 0.128800
vt 0.497800 0.008100
vt 0.675300 0.250600
vt 0.442000 0.250600
vt 0.714200 0.373300
vt 0.403200 0.373300
vt 0.735200 0.496600
vt 0.382200 0.496600
vt 0.735200 0.620100
vt 0.382200 0.620100
vt 0.713000 0.743800
vt 0.404400 0.743800
vt 0.669000 0.867600
vt 0.448400 0.867600
vt 0.588400 0.991300
vt 0.528900 0.991300
vt 0.081800 0.131300
vt 0.162400 0.007600
vt 0.221900 0.007600
vt 0.302500 0.131300
vt 0.037800 0.255100
vt 0.346500 0.255100
vt 0.015600 0.378800
vt 0.368700 0.378800
vt 0.015600 0.378800
vt 0.368700 0.378800
vt 0.116000 0.870200
vt 0.075500 0.748300
vt 0.308800 0.748300
vt 0.268300 0.870100
vt 0.015600 0.502300
vt 0.368700 0.502300
vt 0.036600 0.625600
vt 0.347700 0.625600
vt 0.669000 0.867600
vt 0.588400 0.991300
vt 0.529000 0.991300
vt 0.448400 0.867600
vt 0.713000 0.743800
vt 0.404400 0.743800
vt 0.735200 0.620100
vt 0.382200 0.620100
vt 0.735200 0.496600
vt 0.382200 0.496600
vt 0.714200 0.373300
vt 0.403200 0.373300
vt 0.675300 0.250600
vt 0.442100 0.250600
vt 0.037800 0.255100
vt 0.346500 0.255100
vt 0.634800 0.128700
vt 0.482600 0.128800
vt 0.162400 0.007600
vt 0.221900 0.007600
vt 0.862300 0.937000
vt 0.826300 0.937000
vt 0.985500 0.937000
vt 0.866400 0.937000
vt 0.903500 0.937000
vt 0.947000 0.937000
vt 0.669000 0.867600
vt 0.448400 0.867600
vt 0.588400 0.991300
vt 0.529000 0.991300
vt 0.036600 0.625600
vt 0.347700 0.625600
vt 0.015600 0.502300
vt 0.368700 0.502300
vt 0.116000 0.870200
vt 0.075500 0.748300
vt 0.308800 0.748300
vt 0.268300 0.870100
vt 0.036600 0.625600
vt 0.347700 0.625600
vt 0.015600 0.502300
vt 0.368700 0.502300
vt 0.015600 0.378800
vt 0.368700 0.378800
vt 0.669000 0.867600
vt 0.588400 0.991300
vt 0.528900 0.991300
vt 0.448400 0.867600
vt 0.713000 0.743800
vt 0.404400 0.743800
vt 0.735200 0.620100
vt 0.382200 0.620100
vt 0.735200 0.496600
vt 0.382200 0.496600
vt 0.714200 0.373300
vt 0.403200 0.373300
vt 0.675300 0.250600
vt 0.442000 0.250600
vt 0.634800 0.128700
vt 0.482500 0.128800
vt 0.037800 0.255100
vt 0.346500 0.255100
vt 0.015600 0.502300
vt 0.015600 0.378800
vt 0.368700 0.378800
vt 0.368700 0.502300
vt 0.037800 0.255100
vt 0.346500 0.255100
vt 0.081800 0.131300
vt 0.302500 0.131300
vt 0.162400 0.007600
vt 0.221900 0.007600
vt 0.081800 0.131300
vt 0.302500 0.131300
vt 0.015600 0.378800
vt 0.368700 0.378800
vt 0.037800 0.255100
vt 0.346500 0.255100
vt 0.081800 0.131300
vt 0.302500 0.131300
vt 0.162400 0.007600
vt 0.221900 0.007600
vt 0.162400 0.007600
vt 0.221900 0.007600
vt 0.075500 0.748300
vt 0.308800 0.748300
vt 0.116000 0.870200
vt 0.075500 0.748300
vt 0.308800 0.748300
vt 0.268300 0.870100
vt 0.036600 0.625600
vt 0.347700 0.625600
vt 0.015600 0.502300
vt 0.368700 0.502300
vt 0.015600 0.378800
vt 0.368700 0.378800
vt 0.037800 0.255100
vt 0.346500 0.255100
vt 0.081800 0.131300
vt 0.302500 0.131300
vt 0.162400 0.007600
vt 0.221900 0.007600
vt 0.036600 0.625600
vt 0.347700 0.625600
vt 0.015600 0.502300
vt 0.368700 0.502300
vt 0.116000 0.870200
vt 0.075500 0.748300
vt 0.308800 0.748300
vt 0.268300 0.870100
vt 0.036600 0.625600
vt 0.347700 0.625600
vt 0.015600 0.378800
vt 0.368700 0.378800
vt 0.634800 0.128700
vt 0.675300 0.250600
vt 0.442100 0.250600
vt 0.482600 0.128800
vt 0.714200 0.373300
vt 0.403200 0.373300
vt 0.735200 0.496600
vt 0.382200 0.496600
vt 0.735200 0.620100
vt 0.382200 0.620100
vt 0.713000 0.743800
vt 0.404400 0.743800
vt 0.669000 0.867600
vt 0.448400 0.867600
vt 0.588400 0.991300
vt 0.529000 0.991300
vt 0.037800 0.255100
vt 0.346500 0.255100
vt 0.036700 0.625600
vt 0.015700 0.502300
vt 0.368600 0.502300
vt 0.347600 0.625600
vt 0.075600 0.748300
vt 0.308800 0.748300
vt 0.116000 0.870200
vt 0.268300 0.870100
vt 0.081800 0.131300
vt 0.302500 0.131300
vt 0.162400 0.007600
vt 0.221900 0.007600
vt 0.116000 0.870200
vt 0.075600 0.748300
vt 0.308800 0.748300
vt 0.268300 0.870100
vt 0.081900 0.131300
vt 0.162400 0.007600
vt 0.221900 0.007600
vt 0.302400 0.131300
vt 0.037900 0.255100
vt 0.346400 0.255100
vt 0.015700 0.378800
vt 0.368600 0.378800
vt 0.015700 0.502300
vt 0.368600 0.502300
vt 0.036700 0.625600
vt 0.347600 0.625600
vt 0.131400 0.990800
vt 0.253000 0.990800
vt 0.081900 0.131300
vt 0.162400 0.007600
vt 0.221900 0.007600
vt 0.302400 0.131300
vt 0.037900 0.255100
vt 0.346400 0.255100
vt 0.015700 0.378800
vt 0.368600 0.378800
vt 0.015700 0.502300
vt 0.368600 0.502300
vt 0.036700 0.625600
vt 0.347600 0.625600
vt 0.075600 0.748300
vt 0.308800 0.748300
vt 0.116000 0.870200
vt 0.268300 0.870100
vt 0.619500 0.008100
vt 0.634800 0.128700
vt 0.482500 0.128800
vt 0.497800 0.008100
vt 0.116000 0.870200
vt 0.268300 0.870100
vt 0.253000 0.990800
vt 0.131400 0.990800
vt 0.081900 0.131300
vt 0.162400 0.007600
vt 0.221900 0.007600
vt 0.302400 0.131300
vt 0.037900 0.255100
vt 0.346400 0.255100
vt 0.015700 0.378800
vt 0.368600 0.378800
vt 0.015700 0.502300
vt 0.368600 0.502300
vt 0.036700 0.625600
vt 0.347600 0.625600
vt 0.075600 0.748300
vt 0.308800 0.748300
vt 0.116000 0.870200
vt 0.268300 0.870100
vt 0.116000 0.870200
vt 0.268300 0.870100
vt 0.253000 0.990800
vt 0.131300 0.990800
vt 0.116000 0.870200
vt 0.268300 0.870100
vt 0.253000 0.990800
vt 0.131300 0.990800
vt 0.081800 0.131300
vt 0.162400 0.007600
vt 0.221900 0.007600
vt 0.302500 0.131300
vt 0.037800 0.255100
vt 0.346500 0.255100
vt 0.015600 0.378800
vt 0.368700 0.378800
vt 0.015600 0.502300
vt 0.368700 0.502300
vt 0.036600 0.625600
vt 0.347700 0.625600
vt 0.075500 0.748300
vt 0.308800 0.748300
vt 0.116000 0.870200
vt 0.268300 0.870100
vt 0.116000 0.870200
vt 0.268300 0.870100
vt 0.253000 0.990800
vt 0.131400 0.990800
vt 0.116000 0.870200
vt 0.268300 0.870100
vt 0.253000 0.990800
vt 0.131300 0.990800
vt 0.081800 0.131300
vt 0.162400 0.007600
vt 0.221900 0.007600
vt 0.302500 0.131300
vt 0.037800 0.255100
vt 0.346500 0.255100
vt 0.015600 0.378800
vt 0.368700 0.378800
vt 0.015600 0.502300
vt 0.368700 0.502300
vt 0.036600 0.625600
vt 0.347700 0.625600
vt 0.075500 0.748300
vt 0.308800 0.748300
vt 0.116000 0.870200
vt 0.268300 0.870100
vt 0.253000 0.990800
vt 0.131300 0.990800
vt 0.253000 0.990800
vt 0.131300 0.990800
vt 0.081800 0.131300
vt 0.162400 0.007600
vt 0.221900 0.007600
vt 0.302500 0.131300
vt 0.037800 0.255100
vt 0.346500 0.255100
vt 0.015600 0.378800
vt 0.368700 0.378800
vt 0.015600 0.502300
vt 0.368700 0.502300
vt 0.036600 0.625600
vt 0.347700 0.625600
vt 0.075500 0.748300
vt 0.308800 0.748300
vt 0.253000 0.990800
vt 0.131400 0.990800
vt 0.253000 0.990800
vt 0.131400 0.990800
vt 0.081900 0.131300
vt 0.162400 0.007600
vt 0.221900 0.007600
vt 0.302400 0.131300
vt 0.037900 0.255100
vt 0.346400 0.255100
vt 0.015700 0.378800
vt 0.368600 0.378800
vt 0.015700 0.502300
vt 0.368600 0.502300
vt 0.036700 0.625600
vt 0.347600 0.625600
vt 0.075600 0.748300
vt 0.308800 0.748300
vt 0.253000 0.990800
vt 0.131400 0.990800
vt 0.619500 0.008100
vt 0.497900 0.008100
vt 0.081800 0.131300
vt 0.162400 0.007600
vt 0.221900 0.007600
vt 0.302500 0.131300
vt 0.037800 0.255100
vt 0.346500 0.255100
vt 0.015600 0.378800
vt 0.368700 0.378800
vt 0.015600 0.502300
vt 0.368700 0.502300
vt 0.036600 0.625600
vt 0.347700 0.625600
vt 0.075500 0.748300
vt 0.308800 0.748300
vt 0.131300 0.990800
vt 0.253000 0.990800
vt 0.131300 0.990800
vt 0.253000 0.990800
vt 0.081800 0.131300
vt 0.162400 0.007600
vt 0.221900 0.007600
vt 0.302500 0.131300
vt 0.037800 0.255100
vt 0.346500 0.255100
vt 0.015600 0.378800
vt 0.368700 0.378800
vt 0.015600 0.502300
vt 0.368700 0.502300
vt 0.036600 0.625600
vt 0.347700 0.625600
vt 0.075500 0.748300
vt 0.308800 0.748300
vt 0.131300 0.990800
vt 0.253000 0.990800
vt 0.075600 0.748300
vt 0.308800 0.748300
vt 0.036700 0.625600
vt 0.347600 0.625600
vt 0.015700 0.502300
vt 0.368600 0.502300
vt 0.015700 0.378800
vt 0.368600 0.378800
vt 0.037900 0.255100
vt 0.346400 0.255100
vt 0.497800 0.008100
vt 0.619500 0.008100
vt 0.619500 0.008100
vt 0.497900 0.008100
vt 0.675300 0.250600
vt 0.442000 0.250600
vt 0.714200 0.373300
vt 0.403200 0.373300
vt 0.735200 0.496600
vt 0.382200 0.496600
vt 0.735200 0.620100
vt 0.382200 0.620100
vt 0.713000 0.743800
vt 0.404400 0.743800
vt 0.669000 0.867600
vt 0.448400 0.867600
vt 0.588400 0.991300
vt 0.528900 0.991300
vt 0.253000 0.990800
vt 0.131400 0.990800
vt 0.015700 0.378800
vt 0.368600 0.378800
vt 0.037900 0.255100
vt 0.346400 0.255100
vt 0.081900 0.131300
vt 0.302400 0.131300
vt 0.162400 0.007600
vt 0.221900 0.007600
vt 0.497900 0.008100
vt 0.619500 0.008100
vt 0.253000 0.990800
vt 0.131300 0.990800
vt 0.947000 0.948400
usemtl plant03
s 1
f 1/1 2/2 3/3
f 4/4 5/5 6/6
f 4/4 6/6 7/7
f 8/8 9/9 10/10
f 8/8 10/10 11/11
f 12/12 8/8 11/11
f 12/12 11/11 13/13
f 14/14 12/12 13/13
f 14/14 13/13 15/15
f 16/16 17/17 18/18
f 16/16 18/18 19/19
f 17/17 20/20 21/21
f 17/17 21/21 18/18
f 20/20 14/14 15/15
f 20/20 15/15 21/21
f 22/22 23/23 24/24
f 22/22 24/24 25/25
f 23/23 26/26 24/24
f 23/23 27/27 26/26
f 28/28 27/27 29/29
f 28/28 29/29 30/30
f 27/27 28/28 31/31
f 27/27 31/31 26/26
f 32/32 26/26 31/31
f 32/32 33/33 26/26
f 33/33 24/24 26/26
f 33/33 34/34 24/24
f 35/35 36/36 34/34
f 35/35 34/34 33/33
f 28/28 37/37 38/38
f 28/28 38/38 31/31
f 37/37 28/28 30/30
f 37/37 30/30 39/39
f 40/40 22/22 25/25
f 40/40 25/25 41/41
f 22/22 40/40 42/42
f 22/22 42/42 43/43
f 44/44 45/45 41/41
f 44/44 41/41 25/25
f 46/46 40/40 41/41
f 46/46 41/41 47/47
f 48/48 47/47 49/49
f 48/48 46/46 47/47
f 45/45 50/50 47/47
f 45/45 47/47 41/41
f 50/50 51/51 49/49
f 50/50 49/49 47/47
f 37/37 49/49 38/38
f 37/37 48/48 49/49
f 52/52 32/32 31/31
f 52/52 31/31 38/38
f 27/27 23/23 53/53
f 27/27 53/53 29/29
f 23/23 22/22 43/43
f 23/23 43/43 53/53
f 54/54 55/55 1/1
f 54/54 1/1 3/3
f 56/56 55/55 54/54
f 56/56 54/54 57/57
f 58/58 56/56 57/57
f 46/46 48/48 59/59
f 46/46 59/59 60/60
f 40/40 46/46 60/60
f 40/40 60/60 42/42
f 61/61 62/62 63/63
f 61/61 63/63 64/64
f 65/65 61/61 64/64
f 65/65 64/64 66/66
f 67/67 65/65 66/66
f 67/67 66/66 68/68
f 69/69 67/67 68/68
f 69/69 68/68 70/70
f 71/71 69/69 70/70
f 71/71 70/70 72/72
f 62/62 73/73 74/74
f 62/62 74/74 63/63
f 73/73 75/75 76/76
f 73/73 76/76 74/74
f 75/75 77/77 78/78
f 75/75 78/78 76/76
f 79/79 80/80 81/81
f 79/79 81/81 82/82
f 81/81 83/83 84/84
f 81/81 84/84 82/82
f 83/83 85/85 86/86
f 83/83 86/86 84/84
f 85/85 87/87 88/88
f 85/85 88/88 86/86
f 89/89 90/90 91/91
f 89/89 92/92 90/90
f 93/93 94/94 89/89
f 93/93 89/89 91/91
f 95/95 96/96 97/97
f 95/95 97/97 98/98
f 99/99 100/100 101/101
f 99/99 101/101 102/102
f 103/103 104/104 105/105
f 103/103 105/105 106/106
f 104/104 107/107 108/108
f 104/104 108/108 105/105
f 107/107 109/109 110/110
f 107/107 110/110 108/108
f 109/109 111/111 112/112
f 109/109 112/112 110/110
f 111/111 113/113 114/114
f 111/111 114/114 112/112
f 115/115 116/116 117/117
f 115/115 117/117 118/118
f 116/116 119/119 120/120
f 116/116 120/120 117/117
f 116/116 115/115 121/121
f 116/116 121/121 122/122
f 3/123 2/124 122/122
f 3/123 122/122 121/121
f 2/124 1/125 123/126
f 2/124 123/126 122/122
f 119/119 116/116 122/122
f 119/119 122/122 123/126
f 119/119 124/127 125/128
f 119/119 125/128 120/120
f 43/43 42/42 125/128
f 43/43 125/128 126/129
f 124/127 126/129 125/128
f 124/127 127/130 126/129
f 124/127 119/119 123/126
f 124/127 123/126 128/131
f 129/132 115/115 118/118
f 129/132 118/118 130/133
f 39/39 30/30 130/133
f 39/39 130/133 118/118
f 30/30 29/29 131/134
f 30/30 131/134 130/133
f 132/135 129/132 130/133
f 132/135 130/133 131/134
f 132/135 133/136 134/137
f 132/135 134/137 135/138
f 29/29 53/53 136/139
f 29/29 136/139 131/134
f 133/136 132/135 131/134
f 133/136 131/134 136/139
f 58/140 57/141 135/138
f 58/140 135/138 134/137
f 127/130 136/139 126/129
f 127/130 133/136 136/139
f 133/136 127/130 137/142
f 133/136 137/142 134/137
f 53/53 43/43 126/129
f 53/53 126/129 136/139
f 56/143 58/140 134/137
f 56/143 134/137 137/142
f 54/144 3/123 121/121
f 54/144 121/121 138/145
f 115/115 129/132 138/145
f 115/115 138/145 121/121
f 57/141 54/144 138/145
f 57/141 138/145 135/138
f 129/132 132/135 135/138
f 129/132 135/138 138/145
f 60/60 59/59 117/117
f 60/60 117/117 120/120
f 42/42 60/60 120/120
f 42/42 120/120 125/128
f 139/146 140/147 141/148
f 139/146 141/148 142/149
f 140/147 143/150 144/151
f 140/147 144/151 141/148
f 143/150 145/152 146/153
f 143/150 146/153 144/151
f 145/152 147/154 148/155
f 145/152 148/155 146/153
f 147/154 149/156 150/157
f 147/154 150/157 148/155
f 149/156 151/158 152/159
f 149/156 152/159 150/157
f 151/158 153/160 154/161
f 151/158 154/161 152/159
f 153/160 155/162 156/163
f 153/160 156/163 154/161
f 157/164 158/165 159/166
f 157/164 159/166 160/167
f 158/165 161/168 162/169
f 158/165 162/169 159/166
f 161/168 163/170 164/171
f 161/168 164/171 162/169
f 163/170 165/172 166/173
f 163/170 166/173 164/171
f 165/172 167/174 168/175
f 165/172 168/175 166/173
f 167/174 169/176 170/177
f 167/174 170/177 168/175
f 169/176 171/178 172/179
f 169/176 172/179 170/177
f 171/178 173/180 174/181
f 171/178 174/181 172/179
f 175/182 176/183 177/184
f 175/182 177/184 178/185
f 176/183 179/186 180/187
f 176/183 180/187 177/184
f 179/186 181/188 182/189
f 179/186 182/189 180/187
f 181/188 183/190 184/191
f 181/188 184/191 182/189
f 183/190 185/192 186/193
f 183/190 186/193 184/191
f 185/192 187/194 188/195
f 185/192 188/195 186/193
f 187/194 189/196 190/197
f 187/194 190/197 188/195
f 189/196 191/198 192/199
f 189/196 192/199 190/197
f 193/200 194/201 195/202
f 193/200 195/202 196/203
f 197/204 193/200 196/203
f 197/204 196/203 198/205
f 87/87 199/206 200/207
f 87/87 200/207 88/88
f 201/208 197/204 198/205
f 201/208 198/205 202/209
f 203/210 204/211 205/212
f 203/210 205/212 206/213
f 207/214 201/208 202/209
f 207/214 202/209 208/215
f 204/211 209/216 210/217
f 204/211 210/217 205/212
f 209/216 207/214 208/215
f 209/216 208/215 210/217
f 211/218 212/219 213/220
f 211/218 213/220 214/221
f 215/222 211/218 214/221
f 215/222 214/221 216/223
f 217/224 215/222 216/223
f 217/224 216/223 218/225
f 219/226 217/224 218/225
f 219/226 218/225 220/227
f 221/228 219/226 220/227
f 221/228 220/227 222/229
f 223/230 221/228 222/229
f 223/230 222/229 224/231
f 199/206 225/232 226/233
f 199/206 226/233 200/207
f 225/232 4/4 7/7
f 225/232 7/7 226/233
f 227/234 223/230 224/231
f 227/234 224/231 228/235
f 9/9 229/236 230/237
f 9/9 230/237 10/10
f 231/238 232/239 52/52
f 231/238 52/52 51/51
f 36/36 233/240 44/44
f 36/36 44/44 34/34
f 232/239 234/241 32/32
f 232/239 32/32 52/52
f 235/242 231/238 51/51
f 235/242 51/51 50/50
f 234/241 35/35 33/33
f 234/241 33/33 32/32
f 233/240 236/243 45/45
f 233/240 45/45 44/44
f 236/243 235/242 50/50
f 236/243 50/50 45/45
f 51/51 52/52 38/38
f 51/51 38/38 49/49
f 48/48 37/37 39/39
f 48/48 39/39 59/59
f 34/34 44/44 25/25
f 34/34 25/25 24/24
f 113/113 237/244 238/245
f 113/113 238/245 114/114
f 237/244 239/246 240/247
f 237/244 240/247 238/245
f 92/92 241/248 242/249
f 92/92 242/249 90/90
f 241/248 243/250 244/251
f 241/248 244/251 242/249
f 245/252 246/253 247/254
f 245/252 247/254 248/255
f 246/253 249/256 250/257
f 246/253 250/257 247/254
f 249/256 251/258 252/259
f 249/256 252/259 250/257
f 243/250 253/260 254/261
f 243/250 254/261 244/251
f 255/262 256/263 257/264
f 255/262 257/264 258/265
f 259/266 255/262 258/265
f 259/266 258/265 260/267
f 261/268 259/266 260/267
f 261/268 260/267 262/269
f 263/270 261/268 262/269
f 263/270 262/269 264/271
f 265/272 263/270 264/271
f 265/272 264/271 266/273
f 267/274 265/272 266/273
f 267/274 266/273 268/275
f 269/276 267/274 268/275
f 269/276 268/275 270/277
f 253/260 271/278 272/279
f 253/260 272/279 254/261
f 273/280 274/281 275/282
f 273/280 275/282 276/283
f 274/281 277/284 278/285
f 274/281 278/285 275/282
f 277/284 279/286 280/287
f 277/284 280/287 278/285
f 279/286 281/288 282/289
f 279/286 282/289 280/287
f 271/278 283/290 284/291
f 271/278 284/291 272/279
f 251/258 285/292 286/293
f 251/258 286/293 252/259
f 285/292 287/294 288/295
f 285/292 288/295 286/293
f 287/294 289/296 290/297
f 287/294 290/297 288/295
f 289/296 291/298 292/299
f 289/296 292/299 290/297
f 283/290 293/300 294/301
f 283/290 294/301 284/291
f 99/99 295/302 296/303
f 99/99 296/303 100/100
f 297/304 298/305 299/306
f 297/304 299/306 300/307
f 298/305 301/308 302/309
f 298/305 302/309 299/306
f 301/308 303/310 304/311
f 301/308 304/311 302/309
f 303/310 305/312 306/313
f 303/310 306/313 304/311
f 305/312 307/314 308/315
f 305/312 308/315 306/313
f 307/314 309/316 310/317
f 307/314 310/317 308/315
f 309/316 311/318 312/319
f 309/316 312/319 310/317
f 295/302 313/320 314/321
f 295/302 314/321 296/303
f 313/320 315/322 316/323
f 313/320 316/323 314/321
f 317/324 318/325 319/326
f 317/324 319/326 320/327
f 318/325 321/328 322/329
f 318/325 322/329 319/326
f 321/328 273/280 276/283
f 321/328 276/283 322/329
f 315/322 323/330 324/331
f 315/322 324/331 316/323
f 325/332 326/333 327/334
f 325/332 327/334 328/335
f 326/333 329/336 330/337
f 326/333 330/337 327/334
f 329/336 331/338 332/339
f 329/336 332/339 330/337
f 331/338 333/340 334/341
f 331/338 334/341 332/339
f 333/340 335/342 336/343
f 333/340 336/343 334/341
f 335/342 337/344 338/345
f 335/342 338/345 336/343
f 337/344 339/346 340/347
f 337/344 340/347 338/345
f 323/330 341/348 342/349
f 323/330 342/349 324/331
f 343/350 344/351 345/352
f 343/350 345/352 346/353
f 347/354 343/350 346/353
f 347/354 346/353 348/355
f 349/356 347/354 348/355
f 349/356 348/355 350/357
f 341/348 351/358 352/359
f 341/348 352/359 342/349
f 351/358 353/360 354/361
f 351/358 354/361 352/359
f 355/362 356/363 357/364
f 355/362 357/364 358/365
f 359/366 360/367 361/368
f 359/366 361/368 362/369
f 363/370 359/366 362/369
f 363/370 362/369 364/371
f 365/372 363/370 364/371
f 365/372 364/371 366/373
f 367/374 365/372 366/373
f 367/374 366/373 368/375
f 369/376 367/374 368/375
f 369/376 368/375 370/377
f 356/363 369/376 370/377
f 356/363 370/377 357/364
f 371/378 349/356 350/357
f 371/378 350/357 372/379
f 373/380 374/381 375/382
f 373/380 375/382 376/383
f 377/384 373/380 376/383
f 377/384 376/383 378/385
f 379/386 377/384 378/385
f 379/386 378/385 380/387
f 381/388 379/386 380/387
f 381/388 380/387 382/389
f 383/390 381/388 382/389
f 383/390 382/389 384/391
f 385/392 383/390 384/391
f 385/392 384/391 386/393
f 387/394 385/392 386/393
f 387/394 386/393 388/395
f 389/396 390/397 391/398
f 389/396 391/398 392/399
f 393/400 394/401 395/402
f 393/400 395/402 396/403
f 397/404 398/405 399/406
f 397/404 399/406 400/407
f 401/408 397/404 400/407
f 401/408 400/407 402/409
f 403/410 401/408 402/409
f 403/410 402/409 404/411
f 405/412 403/410 404/411
f 405/412 404/411 406/413
f 407/414 405/412 406/413
f 407/414 406/413 408/415
f 409/416 407/414 408/415
f 409/416 408/415 410/417
f 411/418 409/416 410/417
f 411/418 410/417 412/419
f 413/420 414/421 415/422
f 413/420 415/422 416/423
f 417/424 418/425 419/426
f 417/424 419/426 420/427
f 421/428 422/429 423/430
f 421/428 423/430 424/431
f 425/432 421/428 424/431
f 425/432 424/431 426/433
f 427/434 425/432 426/433
f 427/434 426/433 428/435
f 429/436 427/434 428/435
f 429/436 428/435 430/437
f 431/438 429/436 430/437
f 431/438 430/437 432/439
f 433/440 431/438 432/439
f 433/440 432/439 434/441
f 435/442 433/440 434/441
f 435/442 434/441 436/443
f 437/444 438/445 439/446
f 437/444 439/446 440/447
f 441/448 442/449 443/450
f 441/448 443/450 444/451
f 445/452 446/453 447/454
f 445/452 447/454 448/455
f 449/456 445/452 448/455
f 449/456 448/455 450/457
f 451/458 449/456 450/457
f 451/458 450/457 452/459
f 453/460 451/458 452/459
f 453/460 452/459 454/461
f 455/462 453/460 454/461
f 455/462 454/461 456/463
f 457/464 455/462 456/463
f 457/464 456/463 458/465
f 459/466 457/464 458/465
f 459/466 458/465 460/467
f 459/466 460/467 461/468
f 459/466 461/468 462/469
f 435/442 436/443 463/470
f 435/442 463/470 464/471
f 465/472 466/473 467/474
f 465/472 467/474 468/475
f 469/476 465/472 468/475
f 469/476 468/475 470/477
f 471/478 469/476 470/477
f 471/478 470/477 472/479
f 473/480 471/478 472/479
f 473/480 472/479 474/481
f 475/482 473/480 474/481
f 475/482 474/481 476/483
f 477/484 475/482 476/483
f 477/484 476/483 478/485
f 441/448 477/484 478/485
f 441/448 478/485 442/449
f 411/418 412/419 479/486
f 411/418 479/486 480/487
f 387/394 388/395 481/488
f 387/394 481/488 482/489
f 483/490 484/491 485/492
f 483/490 485/492 486/493
f 487/494 483/490 486/493
f 487/494 486/493 488/495
f 489/496 487/494 488/495
f 489/496 488/495 490/497
f 491/498 489/496 490/497
f 491/498 490/497 492/499
f 493/500 491/498 492/499
f 493/500 492/499 494/501
f 495/502 493/500 494/501
f 495/502 494/501 496/503
f 437/444 495/502 496/503
f 437/444 496/503 438/445
f 355/362 358/365 497/504
f 355/362 497/504 498/505
f 499/506 325/332 328/335
f 499/506 328/335 500/507
f 501/508 502/509 503/510
f 501/508 503/510 504/511
f 505/512 501/508 504/511
f 505/512 504/511 506/513
f 507/514 505/512 506/513
f 507/514 506/513 508/515
f 509/516 507/514 508/515
f 509/516 508/515 510/517
f 511/518 509/516 510/517
f 511/518 510/517 512/519
f 513/520 511/518 512/519
f 513/520 512/519 514/521
f 417/424 513/520 514/521
f 417/424 514/521 418/425
f 515/522 297/304 300/307
f 515/522 300/307 516/523
f 517/524 245/252 248/255
f 517/524 248/255 518/525
f 519/526 520/527 521/528
f 519/526 521/528 522/529
f 523/530 519/526 522/529
f 523/530 522/529 524/531
f 525/532 523/530 524/531
f 525/532 524/531 526/533
f 527/534 525/532 526/533
f 527/534 526/533 528/535
f 529/536 527/534 528/535
f 529/536 528/535 530/537
f 531/538 529/536 530/537
f 531/538 530/537 532/539
f 413/420 531/538 532/539
f 413/420 532/539 414/421
f 533/540 317/324 320/327
f 533/540 320/327 534/541
f 393/400 535/542 536/543
f 393/400 536/543 394/401
f 535/542 537/544 538/545
f 535/542 538/545 536/543
f 537/544 539/546 540/547
f 537/544 540/547 538/545
f 539/546 541/548 542/549
f 539/546 542/549 540/547
f 541/548 543/550 544/551
f 541/548 544/551 542/549
f 543/550 95/95 98/98
f 543/550 98/98 544/551
f 269/276 270/277 545/552
f 269/276 545/552 546/553
f 547/554 103/103 106/106
f 547/554 106/106 548/555
f 390/397 549/556 550/557
f 390/397 550/557 391/398
f 549/556 551/558 552/559
f 549/556 552/559 550/557
f 551/558 553/560 554/561
f 551/558 554/561 552/559
f 553/560 555/562 556/563
f 553/560 556/563 554/561
f 555/562 557/564 558/565
f 555/562 558/565 556/563
f 557/564 559/566 560/567
f 557/564 560/567 558/565
f 559/566 561/568 562/569
f 559/566 562/569 560/567
f 19/19 563/570 564/571
f 19/19 564/571 16/16
f 344/351 565/572 566/573
f 344/351 566/573 345/352
f 565/572 567/574 568/575
f 565/572 568/575 566/573
f 567/574 569/576 570/577
f 567/574 570/577 568/575
f 569/576 571/578 572/579
f 569/576 572/579 570/577
f 573/580 574/581 227/234
f 573/580 227/234 228/235
f 206/213 575/582 576/583
f 206/213 576/583 203/210
f 127/130 124/127 128/131
f 127/130 128/131 137/142
f 55/584 137/142 128/131
f 55/584 56/143 137/142
f 1/125 55/584 128/131
f 1/125 128/131 123/126
f 59/59 39/39 118/118
f 59/59 118/118 117/117
